<?xml version="1.0" encoding="utf-8"?>
<!-- Generator: Adobe Illustrator 24.1.3, SVG Export Plug-In . SVG Version: 6.00 Build 0)  -->
<svg version="1.1" id="Layer_1" xmlns="http://www.w3.org/2000/svg" xmlns:xlink="http://www.w3.org/1999/xlink" x="0px" y="0px"
	 viewBox="0 0 473.88 250.15" style="enable-background:new 0 0 473.88 250.15;" xml:space="preserve">
<style type="text/css">
	.st0{fill:#4C5157;}
</style>
<g>
	<path class="st0" d="M455.43,226.03v-4.21h-12.18v4.21h3.8v24.12h4.53v-24.12H455.43L455.43,226.03z M473.88,250.15v-28.33h-4.45
		l-1.9,8.58c-0.61,2.55-1.29,5.87-1.54,8.18c-0.24-2.31-0.89-5.58-1.5-8.14l-1.86-8.62h-4.45v28.33h4.05v-7.41
		c0-3.32-0.16-6.96-0.2-9.63c0.41,2.15,1.3,6.56,1.98,9.31l1.98,8.58l2.02-8.58c0.73-2.87,1.62-7.08,2.02-9.31
		c-0.08,2.91-0.2,6.19-0.2,9.63v7.41H473.88L473.88,250.15z"/>
	<path class="st0" d="M108.2,71.47C108.2,18.44,82.57,1,52.32,1H0v249.13h39.5V146.21h10.32C82.21,146.21,108.2,124.14,108.2,71.47
		L108.2,71.47z M67.98,73.25c0,27.4-6.76,38.79-20.29,38.79H39.5V34.81h9.25C62.64,34.81,67.98,45.13,67.98,73.25L67.98,73.25z"/>
	<polygon class="st0" points="231.41,38.01 231.41,1 124.28,1 124.28,38.01 157.73,38.01 157.73,250.13 197.6,250.13 197.6,38.01 
		231.41,38.01 	"/>
	<path class="st0" d="M420.35,1h-37.01l-7.83,81.5c-1.78,19.93-3.91,50.54-4.98,74.03c-1.78-23.49-4.63-54.1-6.76-74.03L354.51,1
		H323.9l-8.9,81.5c-2.14,19.93-4.98,50.54-6.76,74.03c-1.07-23.49-2.85-54.1-4.98-74.03L295.08,1h-36.66l29.54,249.13h33.45
		l9.25-66.2c3.56-25.63,7.12-58.72,8.54-79.72c1.78,21,5.34,54.45,8.9,80.08l8.9,65.84h33.46L420.35,1L420.35,1z"/>
</g>
</svg>
